HIERARCHY
ROOT SpineBase
{
  OFFSET 0.000000 0.000000 0.000000
  CHANNELS 6 Xposition Yposition Zposition Zrotation Xrotation Yrotation
  JOINT SpineMid
  {
    OFFSET 0.000000 35.462942 0.000000
    CHANNELS 3 Zrotation Xrotation Yrotation
    JOINT SpineShoulder
    {
      OFFSET 0.295303 26.372544 -1.084607
      CHANNELS 3 Zrotation Xrotation Yrotation
      JOINT Neck
      {
        OFFSET 0.145628 8.731782 -0.769464
        CHANNELS 3 Zrotation Xrotation Yrotation
        JOINT Head
        {
          OFFSET 2.394028 9.345150 6.226105
          CHANNELS 3 Zrotation Xrotation Yrotation
          End Site
          {
            OFFSET 0 0 0
          }
        }
      }
      JOINT ShoulderLeft
      {
        OFFSET 0.324963 -3.863808 -12.072904
        CHANNELS 3 Zrotation Xrotation Yrotation
        JOINT ElbowLeft
        {
          OFFSET 17.771226 -21.168362 -5.163070
          CHANNELS 3 Zrotation Xrotation Yrotation
          JOINT WristLeft
          {
            OFFSET 7.310479 -22.471762 2.584538
            CHANNELS 3 Zrotation Xrotation Yrotation
            JOINT HandLeft
            {
              OFFSET 3.029883 -8.001945 1.195819
              CHANNELS 3 Zrotation Xrotation Yrotation
              JOINT HandTipLeft
              {
                OFFSET 1.667687 -6.998984 -0.590942
                CHANNELS 3 Zrotation Xrotation Yrotation
                End Site
                {
                  OFFSET 0 0 0
                }
              }
              JOINT ThumbLeft
              {
                OFFSET -1.570656 -2.946650 -1.465230
                CHANNELS 3 Zrotation Xrotation Yrotation
                End Site
                {
                  OFFSET 0 0 0
                }
              }
            }
          }
        }
      }
      JOINT ShoulderRight
      {
        OFFSET 17.110339 -2.473069 -14.571614
        CHANNELS 3 Zrotation Xrotation Yrotation
        JOINT ElbowRight
        {
          OFFSET 4.100663 -27.133415 -0.972700
          CHANNELS 3 Zrotation Xrotation Yrotation
          JOINT WristRight
          {
            OFFSET 6.671632 -26.046218 2.982717
            CHANNELS 3 Zrotation Xrotation Yrotation
            JOINT HandRight
            {
              OFFSET 1.183518 -4.655128 -0.324195
              CHANNELS 3 Zrotation Xrotation Yrotation
              JOINT HandTipRight
              {
                OFFSET -0.173580 -6.468340 -0.258647
                CHANNELS 3 Zrotation Xrotation Yrotation
                End Site
                {
                  OFFSET 0 0 0
                }
              }
              JOINT ThumbRight
              {
                OFFSET 1.889702 -0.592942 -3.370340
                CHANNELS 3 Zrotation Xrotation Yrotation
                End Site
                {
                  OFFSET 0 0 0
                }
              }
            }
          }
        }
      }
    }
  }
  JOINT HipLeft
  {
    OFFSET -5.301417 0.458454 -9.036877
    CHANNELS 3 Zrotation Xrotation Yrotation
    JOINT KneeLeft
    {
      OFFSET 16.749042 -31.505940 4.047364
      CHANNELS 3 Zrotation Xrotation Yrotation
      JOINT AnkleLeft
      {
        OFFSET 5.447637 -33.506817 -1.126028
        CHANNELS 3 Zrotation Xrotation Yrotation
        JOINT FootLeft
        {
          OFFSET -0.923642 -2.413690 -12.181805
          CHANNELS 3 Zrotation Xrotation Yrotation
          End Site
          {
            OFFSET 0 0 0
          }
        }
      }
    }
  }
  JOINT HipRight
  {
    OFFSET 6.987544 1.812748 1.409996
    CHANNELS 3 Zrotation Xrotation Yrotation
    JOINT KneeRight
    {
      OFFSET 4.689385 -39.542757 -0.181974
      CHANNELS 3 Zrotation Xrotation Yrotation
      JOINT AnkleRight
      {
        OFFSET -3.409944 -26.790077 -3.115964
        CHANNELS 3 Zrotation Xrotation Yrotation
        JOINT FootRight
        {
          OFFSET 8.190727 -5.328082 -2.278788
          CHANNELS 3 Zrotation Xrotation Yrotation
          End Site
          {
            OFFSET 0 0 0
          }
        }
      }
    }
  }
}
MOTION
Frames: 7
Frame Time: 0.033333
-48.673145 73.287810 263.339470 11.661621 -1.388809 -16.287400 0.092664 0.396934 16.891884 -0.282991 0.379877 0.498434 1.991342 -13.282072 -5.649042 0.000000 0.000000 0.000000 -16.521518 -2.890427 -3.159621 14.113832 -2.133171 0.791859 -21.193436 -0.383469 -2.187216 32.728410 -2.575095 -1.431539 0.000000 0.000000 0.000000 0.000000 0.000000 0.000000 -2.698132 1.025079 -1.361490 -0.494809 -2.468540 0.841648 -16.232159 -36.637484 -12.934285 38.668020 46.338435 -18.224133 0.000000 0.000000 0.000000 0.000000 0.000000 0.000000 -22.706332 0.603872 17.860921 4.415084 -2.663881 -0.981420 118.928109 -79.143402 118.374594 0.000000 0.000000 0.000000 -5.566881 9.572199 16.896856 -1.418313 -13.628615 -0.620875 -102.118859 -17.646199 -8.570926 0.000000 0.000000 0.000000
-48.286706 73.293078 263.396769 12.133824 -1.384103 -15.992707 -0.170445 0.318617 16.613429 -0.402708 0.378369 0.498198 1.833690 -13.286252 -5.601266 0.000000 0.000000 0.000000 -16.683681 -2.875237 -3.136414 14.159484 -1.944036 0.806753 -20.668943 0.543004 -1.706626 33.132506 -4.378307 -1.449848 0.000000 0.000000 0.000000 0.000000 0.000000 0.000000 -2.765538 1.702655 -1.318565 -0.487088 -3.150531 0.785646 -15.345980 -34.803475 -12.001374 41.691716 44.151626 -19.982773 0.000000 0.000000 0.000000 0.000000 0.000000 0.000000 -23.942642 0.535043 17.524624 5.160602 -2.775054 -0.921706 115.556178 -81.767382 111.854078 0.000000 0.000000 0.000000 -5.647007 10.184323 16.604990 1.825990 -12.725408 -0.696374 -116.139721 -17.356322 -16.108527 0.000000 0.000000 0.000000
-48.436191 73.233144 263.464020 11.877894 -1.399830 -15.416031 0.044723 0.392967 16.029988 -0.344162 0.369000 0.502336 1.894747 -13.504040 -5.575010 0.000000 0.000000 0.000000 -16.970999 -2.937031 -3.151637 14.320520 -1.656128 0.827368 -20.396137 1.525451 -1.228728 32.986759 -5.168785 -1.289034 0.000000 0.000000 0.000000 0.000000 0.000000 0.000000 -2.348164 1.952602 -1.329353 -0.947964 -3.387740 0.774864 -15.306105 -32.933059 -11.309544 41.722373 42.594683 -19.331651 0.000000 0.000000 0.000000 0.000000 0.000000 0.000000 -23.488243 1.043255 17.156142 4.900110 -2.874495 -1.036268 107.063058 -82.972502 102.222900 0.000000 0.000000 0.000000 -4.622586 10.719960 15.968372 1.755191 -12.913601 -0.706301 -119.572778 -17.325586 -17.071052 0.000000 0.000000 0.000000
-48.572071 73.228562 263.469377 11.738233 -1.323912 -15.525661 0.075807 0.346032 16.130577 -0.211356 0.366840 0.507121 2.043815 -13.893686 -5.534761 0.000000 0.000000 0.000000 -16.952650 -2.823377 -3.036523 14.430082 -1.764214 0.770632 -20.686978 2.756184 -0.647503 32.821956 -4.702078 -0.999501 0.000000 0.000000 0.000000 0.000000 0.000000 0.000000 -1.641203 1.992241 -1.365611 -1.663522 -3.464288 0.785804 -15.546399 -30.997075 -10.660768 41.630213 42.599076 -18.977999 0.000000 0.000000 0.000000 0.000000 0.000000 0.000000 -23.186461 0.975551 17.241636 4.819392 -2.831391 -1.039563 153.863018 -78.509635 147.117934 0.000000 0.000000 0.000000 -3.185584 10.814635 15.931447 -3.290862 -14.765871 -0.691817 -110.306318 -19.029970 -8.265590 0.000000 0.000000 0.000000
-48.667579 73.323971 263.334259 11.755094 -1.050268 -15.941458 -0.069282 0.092194 16.533384 -0.042496 0.358129 0.512206 2.147602 -14.172098 -5.491415 0.000000 0.000000 0.000000 -16.814492 -2.724909 -2.920581 14.180361 -1.572793 0.775307 -21.077844 3.152432 -0.539880 32.754711 -4.247837 -0.751857 0.000000 0.000000 0.000000 0.000000 0.000000 0.000000 -1.054479 1.459505 -1.417669 -2.238236 -3.008217 0.844137 -17.422351 -28.261341 -10.037490 44.123891 39.994243 -18.955945 0.000000 0.000000 0.000000 0.000000 0.000000 0.000000 -22.903860 0.341461 17.362404 4.750522 -2.553287 -0.908771 61.613516 -84.303202 53.855262 0.000000 0.000000 0.000000 -3.348356 11.339362 16.388055 -4.451769 -17.153573 -0.578112 -109.038082 -18.876522 -7.332659 0.000000 0.000000 0.000000
-49.083379 73.285689 263.328570 11.290812 -0.961837 -16.614479 0.094731 0.067525 17.186096 0.196648 0.415472 0.509818 2.211867 -14.388943 -5.410025 0.000000 0.000000 0.000000 -16.714383 -2.716858 -2.851616 13.720662 -1.179292 0.806969 -21.741437 3.000150 -0.755403 31.416801 -4.357948 -0.423904 0.000000 0.000000 0.000000 0.000000 0.000000 0.000000 -0.495316 0.418331 -1.480232 -2.744227 -2.063179 0.954427 -18.949478 -25.698773 -9.333658 43.948223 38.591433 -17.603174 0.000000 0.000000 0.000000 0.000000 0.000000 0.000000 -21.716980 0.196414 18.027961 4.068461 -2.435292 -0.963697 21.906304 -74.791224 14.320346 0.000000 0.000000 0.000000 -5.657169 10.120964 17.298889 1.650903 -16.058875 -0.058978 -112.494036 -18.674942 -9.973114 0.000000 0.000000 0.000000
-49.857556 73.098468 263.394006 10.405205 -0.960919 -17.467073 0.405011 0.156327 18.005830 0.560564 0.475219 0.505997 2.351865 -14.634787 -5.268270 0.000000 0.000000 0.000000 -16.561530 -2.765501 -2.824009 13.191397 -0.636852 0.876861 -22.298574 2.563955 -1.135124 29.948271 -2.815066 0.031658 0.000000 0.000000 0.000000 0.000000 0.000000 0.000000 -0.307140 0.063987 -1.473052 -2.741268 -1.767117 0.984419 -21.151421 -22.862050 -8.547609 44.944039 37.033110 -16.711630 0.000000 0.000000 0.000000 0.000000 0.000000 0.000000 -19.606065 0.433652 19.065968 2.737022 -2.327481 -1.144159 16.328851 -66.918520 9.703329 0.000000 0.000000 0.000000 -8.821524 7.817882 18.352020 11.948341 -12.389437 0.166623 -118.250408 -18.024779 -15.388407 0.000000 0.000000 0.000000
